<svg xmlns="http://www.w3.org/2000/svg" enable-background="new 0 0 32 32" viewBox="0 0 32 32" id="score"><path d="M29,6H3C2.45,6,2,6.45,2,7v18c0,0.55,0.45,1,1,1h26c0.55,0,1-0.45,1-1V7C30,6.45,29.55,6,29,6z M28,8v2H4V8H28z M4,24V12
			h24v12H4z"></path><path d="M12 14H8c-.55 0-1 .45-1 1v6c0 .55.45 1 1 1h4c.55 0 1-.45 1-1v-6C13 14.45 12.55 14 12 14zM11 20H9v-4h2V20zM24 14h-4c-.55 0-1 .45-1 1v6c0 .55.45 1 1 1h4c.55 0 1-.45 1-1v-6C25 14.45 24.55 14 24 14zM23 20h-2v-4h2V20zM17 17h-2c-.55 0-1 .45-1 1s.45 1 1 1h2c.55 0 1-.45 1-1S17.55 17 17 17z"></path></svg>