<?xml version='1.0' encoding='iso-8859-1'?>
<!-- Uploaded to: SVG Repo, www.svgrepo.com, Generator: SVG Repo Mixer Tools -->
<svg version="1.1" xmlns="http://www.w3.org/2000/svg" viewBox="0 0 263.666 263.666" xmlns:xlink="http://www.w3.org/1999/xlink" enable-background="new 0 0 263.666 263.666">
  <g>
    <path d="m242.202,170.456l-.454-.209c-4.136-1.911-9.038-0.108-10.949,4.028l-3.67,7.943-10.999-5.082c10.85-26.7 17.182-54.554 17.182-75.489 2.84217e-14-56.138-45.508-101.647-101.646-101.647-56.139,0-101.647,45.509-101.647,101.647-7.10543e-15,20.97 6.353,48.88 17.234,75.62l-10.716,4.951-3.67-7.943c-1.911-4.137-6.813-5.939-10.949-4.028l-.454,.209c-4.137,1.912-5.94,6.814-4.029,10.95l27.894,60.367c1.911,4.137 6.813,5.94 10.949,4.028l.454-.209c4.137-1.911 5.94-6.814 4.029-10.95l-3.67-7.942 13.069-6.039c17.077,25.043 38.388,43.005 61.506,43.005 23.153,0 44.495-18.019 61.585-43.123l13.324,6.157-3.67,7.942c-1.911,4.137-0.107,9.039 4.029,10.95l.454,.209c4.136,1.912 9.038,0.108 10.949-4.028l27.893-60.367c1.913-4.136 0.109-9.038-4.028-10.95zm-54.896-87.01c14.558,0 26.359,11.802 26.359,26.36 0,14.558-11.802,26.359-26.359,26.359-14.559,0-39.141-11.802-39.141-26.359-2.84217e-14-14.558 24.582-26.36 39.141-26.36zm-55.641,81.22c4.557,0 8.25,3.693 8.25,8.25s-3.693,8.25-8.25,8.25c-4.557,0-8.25-3.693-8.25-8.25s3.693-8.25 8.25-8.25zm-55.641-81.22c14.559,0 39.141,11.802 39.141,26.36 0,14.558-24.582,26.359-39.141,26.359-14.558,0-26.359-11.802-26.359-26.359 0-14.558 11.802-26.36 26.359-26.36zm30.641,122.72c-4.557,0-8.25-3.693-8.25-8.25s3.693-8.25 8.25-8.25c4.557,0 8.25,3.693 8.25,8.25s-3.693,8.25-8.25,8.25zm25,25c-4.557,0-8.25-3.693-8.25-8.25s3.693-8.25 8.25-8.25c4.557,0 8.25,3.693 8.25,8.25s-3.693,8.25-8.25,8.25zm25-25c-4.557,0-8.25-3.693-8.25-8.25s3.693-8.25 8.25-8.25c4.557,0 8.25,3.693 8.25,8.25s-3.693,8.25-8.25,8.25z"/>
  </g>
</svg>